<svg id="Layer_1" data-name="Layer 1" xmlns="http://www.w3.org/2000/svg" viewBox="0 0 498.05 437"><defs><style>.cls-1{fill:#3fa9f5;}.cls-2,.cls-3{fill:#f2f2f2;}.cls-2{stroke:#1a1a1a;stroke-miterlimit:10;stroke-width:10px;}</style></defs><title>cc_cloudy_49</title><path id="bot" class="cls-1" d="M434.8,218.86a58.3,58.3,0,0,0-22.28,4.43c-3.47-46.79-40.39-83.61-85.44-83.61a81.57,81.57,0,0,0-41.21,11.17c-7.56-28.83-32.5-50-62.12-50-35.61,0-64.48,30.59-64.48,68.32,0,.25,0,.49,0,.74a62.55,62.55,0,0,0-9.54-.74c-36,0-65.22,30.93-65.22,69.09,0,.51,0,1,0,1.51a64.12,64.12,0,0,0-9.56-.73c-36.83,0-66.68,31.63-66.68,70.64S38.16,380.34,75,380.34a63.61,63.61,0,0,0,34.5-10.18C117,412.2,151.84,444,193.71,444c30.14,0,56.62-16.49,71.91-41.4a84,84,0,0,0,55.6,21.22c44.57,0,81.3-35.44,86.54-81.16a58.44,58.44,0,0,0,27,6.63c34,0,61.56-29.2,61.56-65.21S468.8,218.86,434.8,218.86Z" transform="translate(-1.61 -7)"/><path class="cls-2" d="M433.11,130a58.44,58.44,0,0,0-22.28,4.42c-3.48-46.78-40.39-83.6-85.45-83.6A81.56,81.56,0,0,0,284.18,62c-7.57-28.83-32.5-50-62.12-50-35.62,0-64.49,30.59-64.49,68.32,0,.25,0,.49,0,.74a62.68,62.68,0,0,0-9.55-.74c-36,0-65.22,30.93-65.22,69.09,0,.51,0,1,0,1.51a64.12,64.12,0,0,0-9.56-.73c-36.83,0-66.69,31.63-66.69,70.64s29.86,70.65,66.69,70.65a63.58,63.58,0,0,0,34.49-10.18c7.52,42,42.36,73.84,84.22,73.84,30.14,0,56.63-16.49,71.92-41.4A83.91,83.91,0,0,0,319.52,335c44.57,0,81.31-35.43,86.54-81.15a58.48,58.48,0,0,0,27.05,6.63c34,0,61.55-29.2,61.55-65.22S467.1,130,433.11,130Z" transform="translate(-1.61 -7)"/><path class="cls-3" d="M151.76,415.14A76.62,76.62,0,0,1,104,398.42l-3.32-2.61-3.13,2.83a41.55,41.55,0,0,1-27.87,10.92c-23.78,0-43.13-20.63-43.13-46,0-24.87,18.25-45.05,41.55-45.95l4-.15.71-4c7.23-40.14,40.43-69.27,78.94-69.27,21.18,0,41.17,8.68,56.29,24.46a87.6,87.6,0,0,1,24.07,59.56l.1,6.22,6.05-1.43a29.48,29.48,0,0,1,6.78-.8c17.24,0,31.26,15,31.26,33.41s-14,33.42-31.26,33.42a30.43,30.43,0,0,1-24.76-13l-3.8-5.26-4.12,5C197.09,404.45,175,415.14,151.76,415.14Z" transform="translate(-1.61 -7)"/><path d="M151.76,249.24c19.8,0,38.51,8.14,52.68,22.92a82.58,82.58,0,0,1,22.68,56.17l.2,12.44,12.1-2.86a24.59,24.59,0,0,1,5.63-.66c14.48,0,26.26,12.74,26.26,28.41s-11.78,28.42-26.26,28.42a25.45,25.45,0,0,1-20.7-10.95l-7.61-10.53-8.23,10c-14.34,17.48-35,27.5-56.75,27.5a71.68,71.68,0,0,1-44.68-15.65l-6.63-5.22-6.26,5.67a36.61,36.61,0,0,1-24.52,9.62c-21,0-38.13-18.39-38.13-41a42.31,42.31,0,0,1,10.91-28.68,36.77,36.77,0,0,1,25.83-12.27l8-.31,1.43-7.91c6.81-37.76,37.93-65.16,74-65.16m0-10c-41.65,0-76.33,31.59-83.86,73.39-25.76,1-46.36,23.41-46.36,50.94,0,28.16,21.55,51,48.13,51a46.37,46.37,0,0,0,31.23-12.21,81.87,81.87,0,0,0,50.86,17.79c25.74,0,48.82-12.07,64.48-31.16a35.53,35.53,0,0,0,28.81,15.1c20,0,36.26-17.2,36.26-38.42s-16.23-38.41-36.26-38.41a34.62,34.62,0,0,0-7.93.93c-.76-49.26-38.69-88.94-85.36-88.94Z" transform="translate(-1.61 -7)"/></svg>