<svg width="5561" height="5561" viewBox="0 0 5561 5561" fill="none" xmlns="http://www.w3.org/2000/svg">
<g clip-path="url(#clip0_9_20)">
<path d="M4578.72 2487.92L4589.45 2541.47L4643.59 2548.71C4869.64 2578.95 5075.45 2693.1 5219.44 2867.83C5363.4 3042.52 5434.83 3264.74 5419.44 3489.45C5404.06 3714.17 5302.98 3924.86 5136.45 4078.78C4969.9 4232.71 4750.34 4318.33 4522.22 4318.07H4522.18H4522.14H1435.55C1291.1 4317.85 1148.23 4288.43 1015.71 4231.65C883.18 4174.86 763.806 4091.91 664.87 3987.92C565.936 3883.93 489.52 3761.08 440.258 3626.92C390.997 3492.75 369.916 3350.07 378.289 3207.6C386.662 3065.12 424.316 2925.81 488.972 2798.18C553.629 2670.56 643.941 2557.29 754.417 2465.34C864.895 2373.39 993.208 2304.69 1131.51 2263.51C1269.82 2222.32 1415.18 2209.51 1558.68 2225.88L1614.94 2232.3L1637.51 2180.37C1768.04 1880.06 1992.24 1628.84 2277.46 1463.54C2562.69 1298.24 2893.93 1227.59 3222.71 1262C3551.49 1296.41 3860.43 1434.06 4104.38 1654.68C4348.32 1875.29 4514.48 2167.29 4578.72 2487.92Z" fill="#AFAFAF" stroke="#454545" stroke-width="153"/>
<path d="M2616.2 3656.65L2627.11 3710.11L2681.2 3717.21C2810.56 3734.2 2927.95 3798.3 3009.83 3895.86C3091.67 3993.36 3132.04 4117.05 3123.34 4241.88C3114.63 4366.73 3057.42 4484.15 2962.61 4570.19C2867.74 4656.28 2742.35 4704.41 2611.77 4704.27H2611.73H2611.69L747.79 4704.27C747.764 4704.27 747.738 4704.27 747.712 4704.27C664.388 4704.13 582.023 4687.47 505.675 4655.35C429.308 4623.22 360.639 4576.34 303.81 4517.69C246.985 4459.04 203.19 4389.86 174.987 4314.45C146.786 4239.04 134.735 4158.89 139.523 4078.89C144.311 3998.9 165.846 3920.61 202.89 3848.82C239.938 3777.02 291.75 3713.17 355.271 3661.26C418.796 3609.34 492.676 3570.49 572.424 3547.17C652.175 3523.85 736.029 3516.59 818.821 3525.86L874.576 3532.11L897.287 3480.81C973.327 3309.05 1104.08 3165.03 1270.83 3070.14C1437.61 2975.24 1631.46 2934.6 1823.97 2954.38C2016.48 2974.17 2197.14 3053.28 2339.61 3179.79C2482.05 3306.27 2578.81 3473.43 2616.2 3656.65Z" fill="#AFAFAF" stroke="#5C5C5C" stroke-width="153"/>
<path d="M4798.16 3700.63L4808.89 3754.19L4863.03 3761.43C4955.13 3773.74 5038.89 3820.25 5097.42 3891.27C5155.93 3962.27 5184.91 4052.51 5178.67 4143.69C5172.42 4234.88 5131.4 4320.47 5063.68 4383.06C4995.93 4445.68 4906.54 4480.56 4813.59 4480.46L4813.54 4480.46H4813.5L3413.97 4480.46C3413.95 4480.46 3413.92 4480.46 3413.9 4480.46C3354.05 4480.36 3294.88 4468.17 3240 4444.65C3185.1 4421.13 3135.68 4386.78 3094.74 4343.75C3053.8 4300.72 3022.21 4249.92 3001.85 4194.47C2981.49 4139.02 2972.78 4080.06 2976.24 4021.2C2979.7 3962.33 2995.26 3904.76 3021.99 3852C3048.72 3799.24 3086.07 3752.38 3131.8 3714.32C3177.53 3676.25 3230.67 3647.8 3287.98 3630.73C3345.29 3613.67 3405.53 3608.36 3465 3615.14L3521.26 3621.56L3543.83 3569.63C3599.44 3441.71 3694.98 3334.61 3816.63 3264.1C3938.29 3193.6 4079.62 3163.44 4219.93 3178.13C4360.24 3192.81 4492.02 3251.55 4596.03 3345.61C4700.03 3439.66 4770.8 3564.09 4798.16 3700.63Z" fill="#AFAFAF" stroke="#5C5C5C" stroke-width="153"/>
</g>
<defs>
<clipPath id="clip0_9_20">
<rect width="5561" height="5561" fill="white"/>
</clipPath>
</defs>
</svg>
