<svg id="Layer_1" data-name="Layer 1" xmlns="http://www.w3.org/2000/svg" xmlns:xlink="http://www.w3.org/1999/xlink" viewBox="0 0 488.3 400.33"><defs><style>.cls-1{stroke:#666;stroke-width:4px;fill:url(#linear-gradient);}.cls-1,.cls-2{stroke-miterlimit:10;}.cls-2{fill:#f2f2f2;stroke:#4d4d4d;stroke-width:5px;}.cls-3{fill:#f7f7f7;}.cls-4{fill:#666;}</style><linearGradient id="linear-gradient" x1="131.49" y1="278.42" x2="607.64" y2="278.42" gradientUnits="userSpaceOnUse"><stop offset="0.41" stop-color="#cce0f4"/><stop offset="0.46" stop-color="#c3dcf2"/><stop offset="0.54" stop-color="#a9d2ee"/><stop offset="0.63" stop-color="#80c2e7"/><stop offset="0.75" stop-color="#47acde"/><stop offset="0.82" stop-color="#1e9cd7"/><stop offset="0.87" stop-color="#0075be"/><stop offset="0.99" stop-color="#005b97"/></linearGradient></defs><title>cloudy</title><path id="bot" class="cls-1" d="M434.68,229.09A59.82,59.82,0,0,0,413,233.16a83.64,83.64,0,0,0-123.57-66.71,62.91,62.91,0,0,0-123.51,16.88c0,.23,0,.46,0,.68a64.87,64.87,0,0,0-9.31-.68A63.63,63.63,0,0,0,92.94,247c0,.47,0,.93,0,1.39A65.06,65.06,0,1,0,117.3,368.42a83.63,83.63,0,0,0,152.33,29.87,85.06,85.06,0,0,0,138.67-55.2,60.05,60.05,0,1,0,26.38-114Z" transform="translate(-8.44 -38.08)"/><path class="cls-2" d="M427,149.25a59.88,59.88,0,0,0-21.74,4.07A83.65,83.65,0,0,0,281.73,86.61,62.91,62.91,0,0,0,158.21,103.5c0,.23,0,.45,0,.68a63.66,63.66,0,0,0-72.94,62.94c0,.47,0,.93,0,1.4a65.06,65.06,0,1,0,24.33,120.06A83.63,83.63,0,0,0,262,318.46a85.07,85.07,0,0,0,138.67-55.2,60.06,60.06,0,1,0,26.39-114Z" transform="translate(-8.44 -38.08)"/><path class="cls-3" d="M158.54,412.45a80.63,80.63,0,0,1-48.42-16l-1.28-1-1.21,1A44.95,44.95,0,1,1,76.8,317.43l1.59-.06.3-1.56a81.3,81.3,0,0,1,161.13,14l0,2.45,2.4-.53A33.37,33.37,0,1,1,223,384.53l-1.49-1.95-1.61,1.86A81.3,81.3,0,0,1,158.54,412.45Z" transform="translate(-8.44 -38.08)"/><path class="cls-4" d="M158.54,251.85a79.29,79.29,0,0,1,79.28,78l.08,4.91,4.79-1.07a31.38,31.38,0,1,1-18.06,49.66l-3-3.9-3.22,3.7a79.29,79.29,0,0,1-107.12,11.73l-2.56-1.9L106.33,395a42.95,42.95,0,1,1-29.46-75.59l3.19-.12.6-3.13a79.33,79.33,0,0,1,77.88-64.33m0-4a83.32,83.32,0,0,0-81.81,67.58,47,47,0,1,0,32.19,82.63,83.3,83.3,0,0,0,112.53-12.31,35.38,35.38,0,1,0,20.37-56,83.29,83.29,0,0,0-83.28-81.91Z" transform="translate(-8.44 -38.08)"/></svg>