<?xml version="1.0" encoding="utf-8"?>
<!-- Generator: Adobe Illustrator 24.0.1, SVG Export Plug-In . SVG Version: 6.00 Build 0)  -->
<svg version="1.1" id="Layer_1" xmlns="http://www.w3.org/2000/svg" xmlns:xlink="http://www.w3.org/1999/xlink" x="0px" y="0px"
	 viewBox="0 0 500 500" style="enable-background:new 0 0 500 500;" xml:space="preserve">
<style type="text/css">
	.st0{fill:#BFBFBF;}
	.st1{fill:#D4D6D6;}
</style>
<path class="st0" d="M483,245.91c0-35.09-28.39-63.54-63.46-63.65c3.73-9.13,5.79-19.12,5.79-29.59c0-43.22-35.04-78.26-78.26-78.26
	c-17.07,0-32.85,5.47-45.71,14.74c-15.94-22.51-42.18-37.2-71.86-37.2c-48.6,0-87.99,39.4-87.99,87.99c0,12.96,2.8,25.26,7.83,36.34
	c-19.2,13.16-31.79,35.24-31.79,60.27c0,39.2,30.89,71.17,69.65,72.94v0.08h233.65v-0.04C455.3,308.73,483,280.56,483,245.91z"/>
<path class="st1" d="M482.99,361.9c0-44.65-36.13-80.85-80.74-80.99c4.75-11.61,7.37-24.32,7.37-37.64
	c0-54.99-44.58-99.57-99.57-99.57c-21.71,0-41.8,6.95-58.16,18.75c-20.28-28.64-53.67-47.34-91.44-47.34
	c-61.83,0-111.96,50.13-111.96,111.96c0,16.49,3.56,32.14,9.96,46.23c-24.43,16.74-40.46,44.84-40.46,76.69
	c0,49.87,39.3,90.56,88.62,92.8v0.1h297.3v-0.05C447.75,441.83,482.99,405.99,482.99,361.9z"/>
<path class="st1" d="M250.49,442.6V160.24c-20.4-27.55-53.13-45.43-90.04-45.43c-61.83,0-111.96,50.13-111.96,111.96
	c0,16.49,3.56,32.14,9.96,46.23c-24.43,16.74-40.46,44.84-40.46,76.69c0,49.87,39.3,90.56,88.62,92.8v0.1H250.49z"/>
</svg>
