<svg width="6038" height="6038" viewBox="0 0 6038 6038" fill="none" xmlns="http://www.w3.org/2000/svg">
<g clip-path="url(#clip0_9_8)">
<path d="M3623.38 1875.61L3623.26 1875.51L3623.13 1875.42C3449.83 1742.6 3255.69 1640.02 3048.92 1571.71C3224.02 1459.2 3428.76 1400.75 3637.48 1404.21C3860.19 1407.91 4076.03 1481.91 4254.15 1615.65C4432.28 1749.38 4563.58 1935.99 4629.29 2148.82C4687.75 2338.16 4691.64 2539.62 4641.29 2730.26C4498.57 2651.51 4346.82 2590.22 4189.32 2547.76C4050.49 2286.22 3857.61 2057.08 3623.38 1875.61ZM4981.75 2586.86V2334.71H5633.68L5719.53 2465.06L5634.68 2586.86H4981.75ZM3615.36 425.672L3745.38 460.159V1098.29H3493.25V459.602L3615.36 425.672ZM2741.38 1404.59L2659.52 1486.46C2591.53 1479.1 2523.22 1475.13 2454.83 1474.57L2114.81 1134.53L2162.55 1017.7L2294.37 957.467L2741.38 1404.59ZM5127.08 1131.24L4675.58 1582.78L4497.29 1404.48L4947.9 953.859L5089.17 999.317L5127.08 1131.24Z" fill="#FFE168" stroke="#C6A727" stroke-width="120"/>
<path d="M4559.08 4693.63L4559.04 4693.67L4559 4693.7C4335.44 4897.06 4031.86 5010.5 3703.09 5010.5H1262.55C967.924 5010.5 720.858 4932.31 543.291 4790.99C342.432 4630.95 233.5 4392.64 233.5 4093.99C233.5 3836.62 330.13 3616.29 512.027 3452.99C658.107 3321.85 861.284 3228.21 1085.73 3192.06C1090.68 3191.48 1099.16 3189.97 1108.59 3185.68C1142.97 3170.05 1150.64 3138.5 1152.23 3130.58L1152.48 3129.32L1152.69 3128.04C1217.35 2736.4 1391.2 2407.79 1652.77 2174.72C1907.38 1948.91 2236.16 1824.66 2576.47 1825.64L2576.58 1825.64H2576.69C2875.69 1825.64 3153.77 1918.36 3382.19 2093.13C3583.01 2249.1 3738 2456.41 3830.76 2693.19L3846.64 2733.73L3889.61 2740.77C4182.87 2788.84 4431.49 2910.73 4611.24 3090.08C4812.13 3290.99 4919.88 3558.92 4919.88 3868.68C4919.88 4190.26 4791.68 4482.64 4559.08 4693.63Z" fill="#AFAFAF" stroke="#5C5C5C" stroke-width="153"/>
<path d="M4372.16 4449.63L4382.89 4503.19L4437.03 4510.43C4529.13 4522.74 4612.89 4569.25 4671.42 4640.27C4729.93 4711.27 4758.91 4801.51 4752.67 4892.69C4746.42 4983.88 4705.4 5069.47 4637.68 5132.06C4569.93 5194.68 4480.54 5229.56 4387.59 5229.46L4387.54 5229.46H4387.5L2987.97 5229.46C2987.95 5229.46 2987.92 5229.46 2987.9 5229.46C2928.05 5229.36 2868.88 5217.17 2814 5193.65C2759.1 5170.13 2709.68 5135.78 2668.74 5092.75C2627.8 5049.72 2596.21 4998.92 2575.85 4943.47C2555.49 4888.02 2546.78 4829.06 2550.24 4770.2C2553.7 4711.33 2569.26 4653.76 2595.99 4601C2622.72 4548.24 2660.07 4501.38 2705.8 4463.32C2751.53 4425.25 2804.67 4396.8 2861.98 4379.73C2919.29 4362.67 2979.53 4357.36 3039 4364.14L3095.26 4370.56L3117.83 4318.63C3173.44 4190.71 3268.98 4083.61 3390.63 4013.1C3512.29 3942.6 3653.62 3912.44 3793.93 3927.13C3934.24 3941.81 4066.02 4000.55 4170.03 4094.61C4274.03 4188.66 4344.8 4313.09 4372.16 4449.63Z" fill="#AFAFAF" stroke="#5C5C5C" stroke-width="153"/>
</g>
<defs>
<clipPath id="clip0_9_8">
<rect width="6038" height="6038" fill="white"/>
</clipPath>
</defs>
</svg>
