<?xml version="1.0" encoding="utf-8"?>
<!-- Generator: Adobe Illustrator 24.0.1, SVG Export Plug-In . SVG Version: 6.00 Build 0)  -->
<svg version="1.1" id="Layer_1" xmlns="http://www.w3.org/2000/svg" xmlns:xlink="http://www.w3.org/1999/xlink" x="0px" y="0px"
	 viewBox="0 0 500 500" style="enable-background:new 0 0 500 500;" xml:space="preserve">
<style type="text/css">
	.st0{fill:#BFBFBF;}
	.st1{fill:#FEBE20;}
	.st2{fill:#FCD017;}
	.st3{fill:#D4D6D6;}
</style>
<path class="st0" d="M357.73,403.03V280.04c-8.88-12-23.14-19.79-39.22-19.79c-26.93,0-48.77,21.83-48.77,48.77
	c0,7.18,1.55,14,4.34,20.14c-10.64,7.29-17.62,19.53-17.62,33.4c0,21.72,17.12,39.44,38.6,40.42v0.04H357.73z"/>
<g>
	<path class="st1" d="M162.85,56.13h-7.56c-0.43,0-0.77-0.35-0.77-0.77v-38.8c0-0.43,0.35-0.77,0.77-0.77h7.56
		c0.43,0,0.77,0.35,0.77,0.77v38.8C163.63,55.78,163.28,56.13,162.85,56.13z"/>
	<path class="st1" d="M199.57,64.46l-6.96-2.96c-0.39-0.17-0.58-0.62-0.41-1.01l15.17-35.71c0.17-0.39,0.62-0.58,1.01-0.41
		l6.96,2.96c0.39,0.17,0.58,0.62,0.41,1.01l-15.17,35.71C200.42,64.44,199.96,64.63,199.57,64.46z"/>
	<path class="st1" d="M230.47,85.03l-5.54-5.15c-0.31-0.29-0.33-0.78-0.04-1.09l26.42-28.42c0.29-0.31,0.78-0.33,1.09-0.04
		l5.54,5.15c0.31,0.29,0.33,0.78,0.04,1.09l-26.42,28.42C231.27,85.3,230.78,85.32,230.47,85.03z"/>
	<path class="st1" d="M253.73,119.15l-3.39-6.76c-0.19-0.38-0.04-0.85,0.34-1.04l34.68-17.39c0.38-0.19,0.85-0.04,1.04,0.34
		l3.39,6.76c0.19,0.38,0.04,0.85-0.34,1.04l-34.68,17.39C254.39,119.69,253.92,119.53,253.73,119.15z"/>
	<path class="st1" d="M261.25,161.43v-7.56c0-0.43,0.35-0.77,0.77-0.77h38.8c0.43,0,0.77,0.35,0.77,0.77v7.56
		c0,0.43-0.35,0.77-0.77,0.77h-38.8C261.59,162.21,261.25,161.86,261.25,161.43z"/>
	<path class="st1" d="M253.07,199.89l3.03-6.93c0.17-0.39,0.63-0.57,1.02-0.4l35.56,15.53c0.39,0.17,0.57,0.63,0.4,1.02l-3.03,6.93
		c-0.17,0.39-0.63,0.57-1.02,0.4l-35.56-15.53C253.08,200.74,252.9,200.28,253.07,199.89z"/>
	<path class="st1" d="M232.19,230.58l5.21-5.49c0.29-0.31,0.78-0.32,1.09-0.03l28.15,26.71c0.31,0.29,0.32,0.78,0.03,1.09
		l-5.21,5.49c-0.29,0.31-0.78,0.32-1.09,0.03l-28.15-26.71C231.91,231.38,231.89,230.89,232.19,230.58z"/>
	<path class="st1" d="M197.83,253.49l6.8-3.32c0.38-0.19,0.85-0.03,1.04,0.36l17.04,34.86c0.19,0.38,0.03,0.85-0.36,1.04l-6.8,3.32
		c-0.38,0.19-0.85,0.03-1.04-0.36l-17.04-34.86C197.29,254.14,197.45,253.68,197.83,253.49z"/>
	<path class="st1" d="M155.48,260.58l7.56,0.08c0.43,0,0.77,0.35,0.77,0.78l-0.39,38.8c0,0.43-0.35,0.77-0.78,0.77l-7.56-0.08
		c-0.43,0-0.77-0.35-0.77-0.78l0.39-38.8C154.7,260.92,155.05,260.57,155.48,260.58z"/>
	<path class="st1" d="M119.61,250.8l6.98,2.92c0.39,0.16,0.58,0.62,0.42,1.01l-14.96,35.8c-0.16,0.39-0.62,0.58-1.01,0.42
		l-6.98-2.92c-0.39-0.16-0.58-0.62-0.42-1.01l14.96-35.8C118.76,250.82,119.21,250.63,119.61,250.8z"/>
	<path class="st1" d="M88.58,230.41l5.57,5.12c0.31,0.29,0.34,0.78,0.05,1.09L67.95,265.2c-0.29,0.31-0.78,0.34-1.09,0.05
		l-5.57-5.12c-0.31-0.29-0.34-0.78-0.05-1.09l26.25-28.57C87.78,230.15,88.27,230.12,88.58,230.41z"/>
	<path class="st1" d="M65.12,196.43l3.43,6.74c0.19,0.38,0.04,0.85-0.34,1.04l-34.58,17.6c-0.38,0.19-0.85,0.04-1.04-0.34
		l-3.43-6.74c-0.19-0.38-0.04-0.85,0.34-1.04l34.58-17.6C64.46,195.9,64.92,196.05,65.12,196.43z"/>
	<path class="st1" d="M57.35,154.2l0.05,7.56c0,0.43-0.34,0.78-0.77,0.78l-38.8,0.23c-0.43,0-0.78-0.34-0.78-0.77L17,154.44
		c0-0.43,0.34-0.78,0.77-0.78l38.8-0.23C57,153.42,57.35,153.77,57.35,154.2z"/>
	<path class="st1" d="M65.53,118.44l-2.93,6.97c-0.17,0.39-0.62,0.58-1.01,0.41L25.82,110.8c-0.39-0.17-0.58-0.62-0.41-1.01
		l2.93-6.97c0.17-0.39,0.62-0.58,1.01-0.41l35.77,15.03C65.51,117.6,65.7,118.05,65.53,118.44z"/>
	<path class="st1" d="M85.98,87.47l-5.13,5.56c-0.29,0.31-0.78,0.33-1.09,0.04L51.24,66.76c-0.31-0.29-0.33-0.78-0.04-1.09
		l5.13-5.56c0.29-0.31,0.78-0.33,1.09-0.04l28.52,26.31C86.25,86.66,86.27,87.15,85.98,87.47z"/>
	<path class="st1" d="M120.01,64.07l-6.75,3.42c-0.38,0.19-0.85,0.04-1.04-0.34L94.7,32.53c-0.19-0.38-0.04-0.85,0.34-1.04
		l6.75-3.42c0.38-0.19,0.85-0.04,1.04,0.34l17.53,34.62C120.55,63.41,120.39,63.88,120.01,64.07z"/>
	<circle class="st2" cx="160.89" cy="157.85" r="83.3"/>
	<path class="st1" d="M194.02,223.88c-46.01,0-83.3-37.3-83.3-83.3c0-25.63,11.58-48.56,29.79-63.84
		c-36.41,8.91-63.43,41.75-63.43,80.91c0,46.01,37.3,83.3,83.3,83.3c20.37,0,39.04-7.32,53.51-19.47
		C207.52,223.04,200.86,223.88,194.02,223.88z"/>
</g>
<path class="st3" d="M467.98,400.47c0-43.14-34.91-78.12-78.02-78.26c4.59-11.22,7.12-23.5,7.12-36.38
	c0-53.14-43.08-96.22-96.22-96.22c-20.98,0-40.39,6.72-56.2,18.12C225.07,180.07,192.8,162,156.31,162
	c-59.75,0-108.19,48.44-108.19,108.19c0,15.93,3.44,31.06,9.63,44.67c-23.6,16.17-39.09,43.33-39.09,74.1
	c0,48.19,37.97,87.51,85.63,89.67v0.1h287.27v-0.05C433.93,477.71,467.98,443.08,467.98,400.47z"/>
<path class="st0" d="M482.23,299.93c0-31.9-25.81-57.77-57.69-57.86c3.39-8.3,5.27-17.38,5.27-26.9c0-39.29-31.85-71.14-71.14-71.14
	c-15.51,0-29.87,4.97-41.56,13.4c-14.49-20.46-38.35-33.82-65.33-33.82c-44.18,0-79.99,35.81-79.99,79.99
	c0,11.78,2.55,22.96,7.12,33.03c-17.45,11.96-28.9,32.04-28.9,54.79c0,35.63,28.08,64.7,63.31,66.31v0.07h212.41v-0.03
	C457.05,357.04,482.23,331.43,482.23,299.93z"/>
</svg>
