<svg width="5026" height="5026" viewBox="0 0 5026 5026" fill="none" xmlns="http://www.w3.org/2000/svg">
<path d="M2653 913.501H2333.17V158.034L2493.08 89.8158L2653 158.034V913.501ZM3676.29 1468.89L3457.88 1250.49L3988.79 705.356L4157.4 759.304L4211.72 933.458L3676.29 1468.89ZM2493.08 4798.97L2333.17 4704.28V3944.33H2653V4704.28L2493.08 4798.97ZM1310.04 1459.5L767.157 930.899L806.628 746.077L995.242 707.898L1532.41 1245.07L1310.04 1459.5ZM4149.88 4086.06L3982.26 4150.93L3457.73 3607.5L3671.67 3393.56L4210.64 3913.61L4149.88 4086.06ZM217.2 2588.83L119.074 2428.92L217.2 2269H977.665V2588.83H217.2ZM1537.67 3612.74L998.899 4151.52L832.19 4089.73L775.133 3923.69L1305.87 3392.95L1422.41 3501.45L1537.67 3612.74ZM2493.08 3635.92C2157.03 3635.92 1872.99 3518.87 1638.06 3283.94C1403.13 3049.01 1286.08 2764.97 1286.08 2428.92C1286.08 2092.87 1403.13 1808.83 1638.06 1573.9C1872.99 1338.97 2157.03 1221.92 2493.08 1221.92C2829.13 1221.92 3113.17 1338.97 3348.1 1573.9C3583.03 1808.83 3700.08 2092.87 3700.08 2428.92C3700.08 2764.97 3583.03 3049.01 3348.1 3283.94C3113.17 3518.87 2829.13 3635.92 2493.08 3635.92Z" fill="#FFE168" stroke="#C6A727" stroke-width="99"/>
<path d="M4388.84 2365.69L4400.25 2418.81L4454.17 2425.54C4556.59 2438.31 4648.6 2486.42 4712.2 2558.38C4775.62 2630.14 4806.24 2720.28 4799.61 2810.51C4792.98 2900.8 4749.36 2986.79 4675.46 3050.48C4601.4 3114.31 4502.73 3150.56 4399.29 3150.45H4399.25H4399.21L2888.03 3150.45C2888.01 3150.45 2887.98 3150.45 2887.95 3150.45C2821.78 3150.34 2756.46 3137.77 2696.05 3113.63L2667.67 3184.67L2696.05 3113.63C2635.62 3089.49 2581.58 3054.37 2537.06 3010.73C2492.55 2967.11 2458.52 2915.93 2436.69 2860.49C2414.87 2805.08 2405.6 2746.34 2409.29 2687.81C2412.98 2629.27 2429.58 2571.79 2458.33 2518.87L2391.61 2482.62L2458.33 2518.87C2487.1 2465.93 2527.51 2418.51 2577.43 2379.77C2627.36 2341.02 2685.68 2311.83 2748.9 2294.27C2812.12 2276.72 2878.68 2271.23 2944.42 2278.23L2998.76 2284.01L3021.85 2234.48C3081.67 2106.14 3184.96 1997.67 3317.78 1925.9C3450.65 1854.1 3605.48 1823.18 3759.46 1838.21C3913.44 1853.23 4057.39 1913.3 4170.48 2008.66C4283.48 2103.95 4359.53 2229.25 4388.84 2365.69Z" fill="#AFAFAF" stroke="#5C5C5C" stroke-width="153"/>
</svg>
