<?xml version="1.0" encoding="utf-8"?>
<!-- Generator: Adobe Illustrator 24.0.1, SVG Export Plug-In . SVG Version: 6.00 Build 0)  -->
<svg version="1.1" id="Layer_1" xmlns="http://www.w3.org/2000/svg" xmlns:xlink="http://www.w3.org/1999/xlink" x="0px" y="0px"
	 viewBox="0 0 500 500" style="enable-background:new 0 0 500 500;" xml:space="preserve">
<style type="text/css">
	.st0{display:none;fill:#BFBFBF;}
	.st1{fill:#BFBFBF;}
	.st2{fill:#FEBE20;}
	.st3{fill:#FCD017;}
	.st4{fill:#D4D6D6;}
</style>
<path class="st0" d="M482,321.88c0-19.45-15.73-35.21-35.17-35.27c2.07-5.06,3.21-10.59,3.21-16.4c0-23.95-19.42-43.37-43.37-43.37
	c-9.46,0-18.21,3.03-25.33,8.17c-8.83-12.47-23.38-20.62-39.83-20.62c-26.93,0-48.77,21.83-48.77,48.77c0,7.18,1.55,14,4.34,20.14
	c-10.64,7.29-17.62,19.53-17.62,33.4c0,21.72,17.12,39.44,38.6,40.42v0.04h129.49v-0.02C466.65,356.69,482,341.08,482,321.88z"/>
<path class="st1" d="M357.73,403.03V280.04c-8.88-12-23.14-19.79-39.22-19.79c-26.93,0-48.77,21.83-48.77,48.77
	c0,7.18,1.55,14,4.34,20.14c-10.64,7.29-17.62,19.53-17.62,33.4c0,21.72,17.12,39.44,38.6,40.42v0.04H357.73z"/>
<g>
	<path class="st2" d="M278.28,70.51h-11.94c-0.43,0-0.77-0.35-0.77-0.77V11.55c0-0.43,0.35-0.77,0.77-0.77h11.94
		c0.43,0,0.77,0.35,0.77,0.77v58.18C279.05,70.16,278.71,70.51,278.28,70.51z"/>
	<path class="st2" d="M332.6,82.99l-10.99-4.67c-0.39-0.17-0.58-0.62-0.41-1.01l22.75-53.55c0.17-0.39,0.62-0.58,1.01-0.41
		l10.99,4.67c0.39,0.17,0.58,0.62,0.41,1.01l-22.75,53.55C333.45,82.97,332.99,83.15,332.6,82.99z"/>
	<path class="st2" d="M378.27,113.54l-8.74-8.13c-0.31-0.29-0.33-0.78-0.04-1.09l39.62-42.61c0.29-0.31,0.78-0.33,1.09-0.04
		l8.74,8.13c0.31,0.29,0.33,0.78,0.04,1.09l-39.62,42.61C379.07,113.82,378.58,113.83,378.27,113.54z"/>
	<path class="st2" d="M412.6,164.13l-5.35-10.67c-0.19-0.38-0.04-0.85,0.34-1.04l52.01-26.08c0.38-0.19,0.85-0.04,1.04,0.34
		l5.35,10.67c0.19,0.38,0.04,0.85-0.34,1.04l-52.01,26.08C413.26,164.67,412.8,164.52,412.6,164.13z"/>
	<path class="st2" d="M423.56,226.76v-11.94c0-0.43,0.35-0.77,0.77-0.77h58.18c0.43,0,0.77,0.35,0.77,0.77v11.94
		c0,0.43-0.35,0.77-0.77,0.77h-58.18C423.91,227.54,423.56,227.19,423.56,226.76z"/>
	<path class="st2" d="M411.31,283.66l4.78-10.94c0.17-0.39,0.63-0.57,1.02-0.4l53.32,23.29c0.39,0.17,0.57,0.63,0.4,1.02
		l-4.78,10.94c-0.17,0.39-0.63,0.57-1.02,0.4l-53.32-23.29C411.32,284.51,411.14,284.05,411.31,283.66z"/>
	<path class="st2" d="M380.29,329.02l8.22-8.66c0.29-0.31,0.78-0.32,1.09-0.03l42.2,40.05c0.31,0.29,0.32,0.78,0.03,1.09l-8.22,8.66
		c-0.29,0.31-0.78,0.32-1.09,0.03l-42.2-40.05C380.01,329.82,380,329.33,380.29,329.02z"/>
	<path class="st2" d="M329.35,362.83l10.73-5.24c0.38-0.19,0.85-0.03,1.04,0.36l25.55,52.27c0.19,0.38,0.03,0.85-0.36,1.04
		l-10.73,5.24c-0.38,0.19-0.85,0.03-1.04-0.36L329,363.87C328.81,363.49,328.97,363.02,329.35,362.83z"/>
	<path class="st2" d="M266.62,373.15l11.94,0.12c0.43,0,0.77,0.35,0.77,0.78l-0.59,58.18c0,0.43-0.35,0.77-0.78,0.77l-11.94-0.12
		c-0.43,0-0.77-0.35-0.77-0.78l0.59-58.18C265.84,373.49,266.19,373.15,266.62,373.15z"/>
	<path class="st2" d="M213.55,358.54l11.02,4.6c0.39,0.16,0.58,0.62,0.42,1.01l-22.43,53.68c-0.16,0.39-0.62,0.58-1.01,0.42
		l-11.02-4.6c-0.39-0.16-0.58-0.62-0.42-1.01l22.43-53.68C212.7,358.56,213.15,358.37,213.55,358.54z"/>
	<path class="st2" d="M167.69,328.25l8.79,8.08c0.31,0.29,0.34,0.78,0.05,1.09l-39.36,42.84c-0.29,0.31-0.78,0.34-1.09,0.05
		l-8.79-8.08c-0.31-0.29-0.34-0.78-0.05-1.09l39.36-42.84C166.89,327.99,167.38,327.96,167.69,328.25z"/>
	<path class="st2" d="M133.06,277.87l5.42,10.64c0.19,0.38,0.04,0.85-0.34,1.04l-51.85,26.39c-0.38,0.19-0.85,0.04-1.04-0.34
		l-5.42-10.64c-0.19-0.38-0.04-0.85,0.34-1.04l51.85-26.39C132.4,277.34,132.86,277.49,133.06,277.87z"/>
	<path class="st2" d="M121.73,215.31l0.07,11.94c0,0.43-0.34,0.78-0.77,0.78l-58.18,0.35c-0.43,0-0.78-0.34-0.78-0.77L62,215.67
		c0-0.43,0.34-0.78,0.77-0.78l58.18-0.35C121.38,214.54,121.72,214.88,121.73,215.31z"/>
	<path class="st2" d="M133.99,162.41l-4.63,11.01c-0.17,0.39-0.62,0.58-1.01,0.41l-53.64-22.54c-0.39-0.17-0.58-0.62-0.41-1.01
		l4.63-11.01c0.17-0.39,0.62-0.58,1.01-0.41l53.64,22.54C133.97,161.57,134.15,162.02,133.99,162.41z"/>
	<path class="st2" d="M164.37,116.62l-8.1,8.78c-0.29,0.31-0.78,0.33-1.09,0.04l-42.76-39.45c-0.31-0.29-0.33-0.78-0.04-1.09
		l8.1-8.78c0.29-0.31,0.78-0.33,1.09-0.04l42.76,39.45C164.64,115.82,164.66,116.31,164.37,116.62z"/>
	<path class="st2" d="M214.82,82.1l-10.65,5.39c-0.38,0.19-0.85,0.04-1.04-0.34l-26.28-51.91c-0.19-0.38-0.04-0.85,0.34-1.04
		l10.65-5.39c0.38-0.19,0.85-0.04,1.04,0.34l26.28,51.91C215.36,81.44,215.2,81.9,214.82,82.1z"/>
	<circle class="st3" cx="275" cy="221.09" r="123.31"/>
	<path class="st2" d="M324.04,318.83c-68.1,0-123.31-55.21-123.31-123.31c0-37.94,17.14-71.88,44.1-94.5
		c-53.9,13.19-93.9,61.81-93.9,119.77c0,68.1,55.21,123.31,123.31,123.31c30.16,0,57.79-10.83,79.21-28.81
		C344.03,317.6,334.18,318.83,324.04,318.83z"/>
</g>
<path class="st4" d="M467.98,400.47c0-43.14-34.91-78.12-78.02-78.26c4.59-11.22,7.12-23.5,7.12-36.38
	c0-53.14-43.08-96.22-96.22-96.22c-20.98,0-40.39,6.72-56.2,18.12C225.07,180.07,192.8,162,156.31,162
	c-59.75,0-108.19,48.44-108.19,108.19c0,15.93,3.44,31.06,9.63,44.67c-23.6,16.17-39.09,43.33-39.09,74.1
	c0,48.19,37.97,87.51,85.63,89.67v0.1h287.27v-0.05C433.93,477.71,467.98,443.08,467.98,400.47z"/>
</svg>
