<svg width="6131" height="6131" viewBox="0 0 6131 6131" fill="none" xmlns="http://www.w3.org/2000/svg">
<g clip-path="url(#clip0_9_16)">
<path d="M1971.08 1799.52L1760.91 1948.26L1396.42 1433.22L1469.78 1314.01L1606.6 1284.48L1971.08 1799.52ZM3066.07 1051.93L2959.4 1675.63L2714.67 1633.7L2813.59 1005.5L2949.26 962.627L3066.07 1051.93ZM3748.78 2288.83L3599.98 2078.57L4113.76 1714.98L4228.48 1791.58L4262.56 1925.24L3748.78 2288.83ZM1310.95 2832.6L684.885 2733.92L624.916 2594.23L731.151 2481.37L1357.26 2588.63L1310.95 2832.6ZM4573.56 3268.84L4493.59 3389.43L3873.82 3271.92L3914.8 3032.31L4533.18 3126.92L4573.56 3268.84ZM3204.88 3765.83C2972.99 3929.93 2720.07 3987.77 2443.26 3940.35C2166.45 3892.92 1947.14 3754.17 1782.98 3522.21C1618.82 3290.24 1560.92 3037.27 1608.27 2760.45C1655.61 2483.62 1794.29 2264.34 2026.17 2100.23C2258.06 1936.13 2510.99 1878.29 2787.8 1925.71C3064.61 1973.14 3283.92 2111.89 3448.08 2343.85C3612.23 2575.82 3670.14 2828.79 3622.79 3105.61C3575.45 3382.44 3436.77 3601.72 3204.88 3765.83Z" fill="#FFE168" stroke="#C6A727" stroke-width="99"/>
<path d="M2762.2 3713.54L2773.45 3766.77L2827.43 3773.62C2965.04 3791.07 3089.37 3856.85 3175.76 3956.24C3262.01 4055.47 3304.19 4180.83 3295.08 4306.92C3285.97 4433.05 3226.08 4552.31 3125.9 4640.08C3025.59 4727.98 2892.57 4777.45 2753.63 4777.3H2753.59H2753.55L794.931 4777.3C794.904 4777.3 794.878 4777.3 794.851 4777.3C706.412 4777.16 619.048 4760.08 538.143 4727.21C457.221 4694.34 384.628 4646.44 324.67 4586.7C264.724 4526.96 218.681 4456.65 189.077 4380.22C159.479 4303.8 146.863 4222.68 151.879 4141.76C156.895 4060.83 179.459 3981.53 218.389 3908.68C257.327 3835.81 311.89 3770.82 378.999 3717.86L331.611 3657.81L378.999 3717.86C446.118 3664.9 524.319 3625.15 608.891 3601.27C693.467 3577.4 782.442 3569.95 870.304 3579.46L925.099 3585.38L948.069 3535.28C1027.94 3361.07 1165.54 3214.49 1341.64 3117.73C1517.8 3020.95 1722.78 2979.4 1926.47 2999.61C2130.16 3019.82 2320.99 3100.63 2471.22 3229.43C2621.39 3358.18 2722.99 3527.97 2762.2 3713.54Z" fill="#AFAFAF" stroke="#5C5C5C" stroke-width="153"/>
<path d="M5369.67 3380.32L5380.77 3433.65L5434.8 3440.6C5615.81 3463.9 5779.93 3551.81 5894.33 3685.41C6008.63 3818.89 6064.91 3988.08 6052.77 4158.7C6040.63 4329.36 5960.84 4490.05 5828.35 4607.9C5695.75 4725.84 5520.39 4791.86 5337.67 4791.67H5337.63H5337.59H2828.45C2712.54 4791.49 2597.97 4768.77 2491.8 4724.99C2385.63 4681.21 2290.21 4617.34 2211.27 4537.49C2132.34 4457.65 2071.56 4363.51 2032.43 4260.95C1993.3 4158.39 1976.59 4049.43 1983.23 3940.68C1989.87 3831.93 2019.74 3725.48 2071.15 3627.81C2122.57 3530.14 2194.5 3443.22 2282.76 3372.53C2371.02 3301.83 2473.71 3248.88 2584.6 3217.1C2695.49 3185.32 2812.09 3175.42 2927.22 3188.06L2982.43 3194.12L3005.29 3143.51C3109.78 2912.17 3289.51 2718.04 3518.92 2590.09C3748.37 2462.12 4015.12 2407.29 4280.06 2433.98C4545 2460.66 4793.54 2567.38 4989.48 2737.92C5185.36 2908.41 5318.32 3133.62 5369.67 3380.32Z" fill="#AFAFAF" stroke="#5C5C5C" stroke-width="153"/>
</g>
<defs>
<clipPath id="clip0_9_16">
<rect width="6131" height="6131" fill="white"/>
</clipPath>
</defs>
</svg>
