<svg width="5026" height="5026" viewBox="0 0 5026 5026" fill="none" xmlns="http://www.w3.org/2000/svg">
<path d="M2333.17 913.501V158.034L2493.08 89.8158L2653 158.034V913.501H2333.17ZM3676.29 1468.89L3457.88 1250.49L3988.8 705.356L4157.41 759.304L4211.72 933.458L3676.29 1468.89ZM4008.5 2269H4762.64L4823.98 2428.92L4762.64 2588.83H4008.5V2269ZM2333.17 4704.28V3944.33H2653V4704.28L2493.08 4798.97L2333.17 4704.28ZM995.244 707.898L1532.42 1245.07L1310.05 1459.5L767.159 930.899L806.63 746.077L995.244 707.898ZM4149.88 4086.06L3982.26 4150.93L3457.73 3607.5L3671.67 3393.56L4210.64 3913.61L4149.88 4086.06ZM977.667 2588.83H217.202L119.076 2428.92L217.202 2269H977.667V2588.83ZM1537.68 3612.74L998.901 4151.52L832.192 4089.73L775.135 3923.69L1305.87 3392.95L1422.41 3501.45L1537.68 3612.74ZM2493.08 3635.92C2157.03 3635.92 1873 3518.87 1638.06 3283.94C1403.13 3049.01 1286.08 2764.97 1286.08 2428.92C1286.08 2092.87 1403.13 1808.83 1638.06 1573.9C1873 1338.97 2157.03 1221.92 2493.08 1221.92C2829.13 1221.92 3113.17 1338.97 3348.1 1573.9C3583.03 1808.83 3700.08 2092.87 3700.08 2428.92C3700.08 2764.97 3583.03 3049.01 3348.1 3283.94C3113.17 3518.87 2829.13 3635.92 2493.08 3635.92Z" fill="#FFE168" stroke="#C6A727" stroke-width="99"/>
</svg>
