<svg width="5561" height="5561" viewBox="0 0 5561 5561" fill="none" xmlns="http://www.w3.org/2000/svg">
<g clip-path="url(#clip0_5_17)">
<path fill-rule="evenodd" clip-rule="evenodd" d="M1503.14 4385.88C1493.37 4377.48 1482.03 4371.07 1469.77 4367.02C1445 4358.87 1417.99 4360.81 1394.67 4372.4C1371.35 4384 1353.63 4404.31 1345.4 4428.86L1247.02 4721.49C1242.36 4733.77 1240.25 4746.86 1240.81 4759.97C1241.37 4773.08 1244.6 4785.94 1250.29 4797.78C1255.98 4809.63 1264.03 4820.21 1273.94 4828.9C1283.86 4837.6 1295.44 4844.21 1307.99 4848.36C1320.55 4852.51 1333.82 4854.11 1347.01 4853.05C1360.21 4852 1373.05 4848.32 1384.77 4842.23C1396.49 4836.14 1406.86 4827.77 1415.24 4817.61C1423.62 4807.46 1429.85 4795.73 1433.56 4783.14L1531.95 4490.51C1536.05 4478.35 1537.7 4465.51 1536.79 4452.72C1535.89 4439.94 1532.45 4427.45 1526.67 4415.98C1520.9 4404.51 1512.9 4394.29 1503.14 4385.88ZM2093.46 4385.88C2083.7 4377.48 2072.36 4371.07 2060.09 4367.02C2035.33 4358.87 2008.31 4360.81 1984.99 4372.4C1961.67 4384 1943.95 4404.31 1935.73 4428.86L1738.95 5014.12C1734.3 5026.4 1732.18 5039.49 1732.75 5052.6C1733.31 5065.71 1736.53 5078.57 1742.23 5090.42C1747.92 5102.26 1755.96 5112.85 1765.88 5121.54C1775.79 5130.23 1787.38 5136.84 1799.93 5140.99C1812.49 5145.14 1825.76 5146.74 1838.95 5145.68C1852.14 5144.63 1864.98 5140.95 1876.71 5134.86C1888.43 5128.77 1898.79 5120.4 1907.18 5110.24C1915.56 5100.09 1921.79 5088.36 1925.5 5075.77L2122.27 4490.51C2126.37 4478.35 2128.02 4465.51 2127.12 4452.72C2126.21 4439.94 2122.77 4427.45 2117 4415.98C2111.22 4404.51 2103.22 4394.29 2093.46 4385.88Z" fill="#445983"/>
<path fill-rule="evenodd" clip-rule="evenodd" d="M2736.32 4259.28C2724.93 4249.48 2711.7 4242 2697.39 4237.27C2668.5 4227.77 2636.98 4230.03 2609.77 4243.56C2582.56 4257.09 2561.88 4280.78 2552.29 4309.42L2437.49 4650.79C2432.06 4665.11 2429.59 4680.38 2430.25 4695.67C2430.91 4710.97 2434.67 4725.97 2441.31 4739.79C2447.95 4753.61 2457.34 4765.95 2468.91 4776.09C2480.48 4786.23 2493.99 4793.95 2508.64 4798.79C2523.29 4803.63 2538.77 4805.49 2554.17 4804.26C2569.56 4803.03 2584.54 4798.74 2598.22 4791.63C2611.9 4784.53 2623.99 4774.76 2633.77 4762.92C2643.55 4751.07 2650.82 4737.4 2655.15 4722.7L2769.94 4381.33C2774.73 4367.15 2776.65 4352.17 2775.59 4337.26C2774.54 4322.34 2770.53 4307.78 2763.79 4294.4C2757.05 4281.02 2747.72 4269.09 2736.32 4259.28ZM3425.1 4259.28C3413.71 4249.48 3400.48 4242 3386.16 4237.27C3357.27 4227.77 3325.75 4230.03 3298.54 4243.56C3271.33 4257.09 3250.66 4280.78 3241.06 4309.42L3011.47 4992.16C3006.04 5006.48 3003.57 5021.75 3004.23 5037.04C3004.88 5052.34 3008.65 5067.34 3015.29 5081.16C3021.93 5094.98 3031.32 5107.32 3042.89 5117.46C3054.46 5127.6 3067.97 5135.32 3082.62 5140.16C3097.27 5145 3112.75 5146.86 3128.14 5145.63C3143.54 5144.4 3158.52 5140.11 3172.2 5133C3185.88 5125.9 3197.97 5116.13 3207.75 5104.29C3217.53 5092.44 3224.8 5078.77 3229.12 5064.07L3458.72 4381.33C3463.5 4367.15 3465.42 4352.17 3464.37 4337.26C3463.31 4322.34 3459.3 4307.78 3452.56 4294.4C3445.82 4281.02 3436.49 4269.09 3425.1 4259.28ZM4113.87 4259.28C4102.48 4249.48 4089.25 4242 4074.94 4237.27C4046.05 4227.77 4014.53 4230.03 3987.32 4243.56C3960.11 4257.09 3939.43 4280.78 3929.84 4309.42L3815.04 4650.79C3809.61 4665.11 3807.14 4680.38 3807.8 4695.67C3808.45 4710.97 3812.22 4725.97 3818.86 4739.79C3825.5 4753.61 3834.89 4765.95 3846.46 4776.09C3858.03 4786.23 3871.54 4793.95 3886.19 4798.79C3900.84 4803.63 3916.32 4805.49 3931.71 4804.26C3947.11 4803.03 3962.09 4798.74 3975.77 4791.63C3989.45 4784.53 4001.54 4774.76 4011.32 4762.92C4021.1 4751.07 4028.37 4737.4 4032.69 4722.7L4147.49 4381.33C4152.28 4367.15 4154.2 4352.17 4153.14 4337.26C4152.09 4322.34 4148.07 4307.78 4141.34 4294.4C4134.6 4281.02 4125.27 4269.09 4113.87 4259.28ZM4802.65 4259.28C4791.25 4249.48 4778.02 4242 4763.71 4237.27C4734.82 4227.77 4703.3 4230.03 4676.09 4243.56C4648.88 4257.09 4628.2 4280.78 4618.61 4309.42L4389.02 4992.16C4383.58 5006.48 4381.12 5021.75 4381.78 5037.04C4382.43 5052.34 4386.19 5067.34 4392.84 5081.16C4399.48 5094.98 4408.87 5107.32 4420.43 5117.46C4432 5127.6 4445.52 5135.32 4460.17 5140.16C4474.82 5145 4490.3 5146.86 4505.69 5145.63C4521.08 5144.4 4536.07 5140.11 4549.75 5133C4563.42 5125.9 4575.52 5116.13 4585.3 5104.29C4595.08 5092.44 4602.35 5078.77 4606.67 5064.07L4836.26 4381.33C4841.05 4367.15 4842.97 4352.17 4841.92 4337.26C4840.86 4322.34 4836.85 4307.78 4830.11 4294.4C4823.37 4281.02 4814.04 4269.09 4802.65 4259.28Z" fill="#445983"/>
<path d="M3478.88 1818.52L3489.78 1871.97L3543.87 1879.08C3725.27 1902.91 3890.09 1992.88 4005.19 2130.1C4120.24 2267.25 4177.12 2441.42 4164.86 2617.33C4152.6 2793.26 4072.04 2958.53 3938.83 3079.48C3805.56 3200.5 3629.6 3268.02 3446.51 3267.81H3446.47H3446.43H926.944C810.732 3267.64 695.833 3244.39 589.3 3199.54L559.619 3270.05L589.3 3199.54C482.771 3154.7 386.919 3089.23 307.549 3007.27C228.184 2925.31 166.967 2828.58 127.53 2723.06C88.0938 2617.54 71.2328 2505.38 77.9313 2393.4C84.6298 2281.41 114.754 2171.86 166.541 2071.44C218.331 1971.01 290.726 1881.76 379.408 1809.25C468.094 1736.73 571.185 1682.48 682.404 1649.94C793.626 1617.4 910.55 1607.28 1025.99 1620.21L1081.76 1626.47L1104.47 1575.14C1209.63 1337.45 1390.38 1138.32 1620.69 1007.19C1851.03 876.045 2118.67 819.924 2384.41 847.248C2650.15 874.571 2899.65 983.856 3096.5 1158.76C3293.32 1333.64 3427.16 1564.88 3478.88 1818.52Z" fill="#AFAFAF" stroke="#454545" stroke-width="153"/>
<path d="M4414.84 2580.72L4425.57 2634.28L4479.71 2641.52C4668.28 2666.74 4839.94 2761.97 4960.01 2907.67C5080.06 3053.36 5139.62 3238.64 5126.79 3425.99C5113.96 3613.35 5029.68 3789.03 4890.8 3917.39C4751.9 4045.77 4568.77 4117.19 4378.47 4116.98H4378.43H4378.39H1763.9C1643.11 4116.79 1523.66 4092.2 1412.85 4044.72C1302.05 3997.24 1202.25 3927.89 1119.54 3840.96C1036.84 3754.02 972.964 3651.33 931.79 3539.2C890.616 3427.06 872.997 3307.8 879.995 3188.72C886.993 3069.64 918.464 2953.2 972.507 2846.53C1026.55 2739.85 1102.04 2645.17 1194.4 2568.29C1286.76 2491.42 1394.04 2433.99 1509.68 2399.55C1625.32 2365.11 1746.86 2354.4 1866.85 2368.09L1923.11 2374.51L1945.68 2322.58C2055.24 2070.51 2243.44 1859.61 2482.89 1720.84C2722.35 1582.07 3000.44 1522.75 3276.48 1551.64C3552.52 1580.53 3811.89 1696.09 4016.68 1881.3C4221.46 2066.5 4360.93 2311.61 4414.84 2580.72Z" fill="#AFAFAF" stroke="#5C5C5C" stroke-width="153"/>
</g>
<defs>
<clipPath id="clip0_5_17">
<rect width="5561" height="5561" fill="white"/>
</clipPath>
</defs>
</svg>
