<svg width="5561" height="5561" viewBox="0 0 5561 5561" fill="none" xmlns="http://www.w3.org/2000/svg">
<path fill-rule="evenodd" clip-rule="evenodd" d="M1794.02 4248.15C1780.71 4237.32 1765.26 4229.05 1748.54 4223.83C1714.8 4213.33 1677.98 4215.82 1646.2 4230.77C1614.42 4245.72 1590.27 4271.9 1579.07 4303.55L1444.99 4680.77C1438.64 4696.6 1435.76 4713.47 1436.53 4730.37C1437.29 4747.27 1441.69 4763.85 1449.45 4779.12C1457.2 4794.39 1468.17 4808.04 1481.68 4819.24C1495.19 4830.44 1510.98 4838.97 1528.09 4844.32C1545.2 4849.67 1563.28 4851.73 1581.26 4850.37C1599.24 4849.01 1616.74 4844.26 1632.71 4836.41C1648.69 4828.56 1662.81 4817.77 1674.24 4804.68C1685.66 4791.59 1694.15 4776.48 1699.2 4760.24L1833.28 4383.02C1838.87 4367.35 1841.12 4350.8 1839.88 4334.31C1838.65 4317.83 1833.96 4301.74 1826.09 4286.95C1818.22 4272.17 1807.32 4258.98 1794.02 4248.15ZM2598.49 4248.15C2585.19 4237.32 2569.73 4229.05 2553.02 4223.83C2519.27 4213.33 2482.46 4215.82 2450.68 4230.77C2418.9 4245.72 2394.75 4271.9 2383.54 4303.55L2115.38 5058C2109.04 5073.83 2106.16 5090.7 2106.92 5107.6C2107.69 5124.5 2112.08 5141.08 2119.84 5156.35C2127.6 5171.62 2138.56 5185.26 2152.08 5196.46C2165.59 5207.67 2181.37 5216.2 2198.48 5221.55C2215.59 5226.9 2233.68 5228.95 2251.66 5227.59C2269.63 5226.23 2287.13 5221.49 2303.11 5213.64C2319.09 5205.79 2333.21 5195 2344.63 5181.91C2356.06 5168.82 2364.55 5153.7 2369.6 5137.47L2637.76 4383.02C2643.35 4367.35 2645.59 4350.8 2644.36 4334.31C2643.13 4317.83 2638.44 4301.74 2630.57 4286.95C2622.7 4272.17 2611.8 4258.98 2598.49 4248.15ZM3402.97 4248.15C3389.66 4237.32 3374.21 4229.05 3357.5 4223.83C3323.75 4213.33 3286.94 4215.82 3255.15 4230.77C3223.37 4245.72 3199.22 4271.9 3188.02 4303.55L3053.94 4680.77C3047.59 4696.6 3044.71 4713.47 3045.48 4730.37C3046.25 4747.27 3050.64 4763.85 3058.4 4779.12C3066.16 4794.39 3077.12 4808.04 3090.63 4819.24C3104.14 4830.44 3119.93 4838.97 3137.04 4844.32C3154.15 4849.67 3172.23 4851.73 3190.21 4850.37C3208.19 4849.01 3225.69 4844.26 3241.67 4836.41C3257.64 4828.56 3271.76 4817.77 3283.19 4804.68C3294.61 4791.59 3303.1 4776.48 3308.15 4760.24L3442.23 4383.02C3447.83 4367.35 3450.07 4350.8 3448.84 4334.31C3447.6 4317.83 3442.92 4301.74 3435.05 4286.95C3427.18 4272.17 3416.28 4258.98 3402.97 4248.15ZM4207.45 4248.15C4194.14 4237.32 4178.69 4229.05 4161.97 4223.83C4128.23 4213.33 4091.41 4215.82 4059.63 4230.77C4027.85 4245.72 4003.7 4271.9 3992.5 4303.55L3724.34 5058C3717.99 5073.83 3715.11 5090.7 3715.88 5107.6C3716.64 5124.5 3721.04 5141.08 3728.79 5156.35C3736.55 5171.62 3747.52 5185.26 3761.03 5196.46C3774.54 5207.67 3790.33 5216.2 3807.44 5221.55C3824.55 5226.9 3842.63 5228.95 3860.61 5227.59C3878.59 5226.23 3896.09 5221.49 3912.06 5213.64C3928.04 5205.79 3942.16 5195 3953.59 5181.91C3965.01 5168.82 3973.5 5153.7 3978.55 5137.47L4246.71 4383.02C4252.3 4367.35 4254.55 4350.8 4253.31 4334.31C4252.08 4317.83 4247.39 4301.74 4239.52 4286.95C4231.65 4272.17 4220.75 4258.98 4207.45 4248.15Z" fill="#445983"/>
<path d="M4483.22 2087.71L4493.86 2141.32L4548.02 2148.64C4764.99 2177.96 4962.71 2288.67 5101.13 2458.37C5239.56 2628.07 5308.33 2844.06 5293.52 3062.59C5278.71 3281.12 5181.42 3485.85 5021.36 3635.3C4861.31 3784.75 4650.46 3867.75 4431.52 3867.5H4431.48H4431.43H1456.49C1317.75 3867.29 1180.51 3838.74 1053.17 3783.62C925.836 3728.5 811.086 3647.96 715.946 3546.94C620.806 3445.91 547.28 3326.51 499.869 3196.07C452.458 3065.62 432.161 2926.86 440.222 2788.3C448.283 2649.73 484.531 2514.27 546.747 2390.2C608.962 2266.14 695.836 2156.08 802.046 2066.78C908.257 1977.47 1031.57 1910.79 1164.44 1870.81C1297.3 1830.84 1436.92 1818.42 1574.76 1834.3L1631.29 1840.81L1653.79 1788.54C1779.47 1496.43 1995.26 1252.21 2269.62 1091.58C2543.98 930.949 2862.51 862.331 3178.64 895.756C3494.76 929.181 3791.92 1062.9 4026.64 1277.36C4261.37 1491.81 4421.37 1775.77 4483.22 2087.71Z" fill="#AFAFAF" stroke="#5C5C5C" stroke-width="153"/>
</svg>
