<svg width="5561" height="5561" viewBox="0 0 5561 5561" fill="none" xmlns="http://www.w3.org/2000/svg">
<g clip-path="url(#clip0_5_11)">
<path fill-rule="evenodd" clip-rule="evenodd" d="M4395.89 3900.9C4411.22 3878.35 4433.52 3861.44 4459.37 3852.75H4461.87C4466.86 3852.45 4471.87 3852.45 4476.86 3852.75C4495.04 3849.42 4513.73 3850.17 4531.59 3854.93C4549.44 3859.7 4566.02 3868.37 4580.12 3880.32C4594.22 3892.26 4605.49 3907.19 4613.12 3924.01C4620.75 3940.84 4624.55 3959.15 4624.25 3977.62V4477.12C4624.25 4510.24 4611.09 4542.01 4587.67 4565.42C4564.24 4588.84 4532.47 4602 4499.34 4602C4466.22 4602 4434.45 4588.84 4411.02 4565.42C4387.6 4542.01 4374.44 4510.24 4374.44 4477.12V3977.62C4373.02 3950.39 4380.55 3923.45 4395.89 3900.9ZM3896.26 4150.65C3911.6 4128.1 3933.9 4111.19 3959.75 4102.5H3962.25C3967.24 4102.2 3972.24 4102.2 3977.24 4102.5C3995.41 4099.17 4014.11 4099.92 4031.96 4104.68C4049.82 4109.45 4066.39 4118.12 4080.49 4130.07C4094.59 4142.01 4105.86 4156.94 4113.49 4173.76C4121.13 4190.59 4124.93 4208.9 4124.63 4227.37V4477.12C4124.63 4510.24 4111.47 4542.01 4088.04 4565.42C4064.62 4588.84 4032.85 4602 3999.72 4602C3966.59 4602 3934.82 4588.84 3911.4 4565.42C3887.97 4542.01 3874.81 4510.24 3874.81 4477.12V4227.37C3873.39 4200.14 3880.92 4173.2 3896.26 4150.65ZM4895.51 4150.65C4910.85 4128.1 4933.15 4111.19 4959 4102.5H4961.5C4966.49 4102.2 4971.49 4102.2 4976.49 4102.5C4994.67 4099.17 5013.36 4099.92 5031.21 4104.68C5049.07 4109.45 5065.64 4118.12 5079.74 4130.07C5093.84 4142.01 5105.11 4156.94 5112.74 4173.76C5120.38 4190.59 5124.18 4208.9 5123.88 4227.37V4477.12C5123.88 4510.24 5110.72 4542.01 5087.29 4565.42C5063.87 4588.84 5032.1 4602 4998.97 4602C4965.84 4602 4934.07 4588.84 4910.65 4565.42C4887.22 4542.01 4874.06 4510.24 4874.06 4477.12V4227.37C4872.64 4200.14 4880.17 4173.2 4895.51 4150.65Z" fill="#445983"/>
<path fill-rule="evenodd" clip-rule="evenodd" d="M704.886 3546.9C720.223 3524.35 742.521 3507.44 768.375 3498.75H770.873C775.864 3498.45 780.87 3498.45 785.861 3498.75C804.04 3495.42 822.731 3496.17 840.586 3500.93C858.442 3505.7 875.017 3514.37 889.116 3526.32C903.215 3538.26 914.487 3553.19 922.119 3570.01C929.751 3586.84 933.553 3605.15 933.251 3623.62V4123.13C933.251 4156.24 920.091 4188.01 896.667 4211.43C873.242 4234.84 841.472 4248 808.345 4248C775.217 4248 743.447 4234.84 720.022 4211.43C696.598 4188.01 683.438 4156.24 683.438 4123.13V3623.62C682.016 3596.39 689.549 3569.45 704.886 3546.9ZM205.261 3796.65C220.598 3774.1 242.896 3757.19 268.749 3748.5H271.247C276.239 3748.2 281.244 3748.2 286.236 3748.5C304.415 3745.17 323.106 3745.92 340.961 3750.68C358.816 3755.45 375.391 3764.12 389.49 3776.07C403.59 3788.01 414.862 3802.94 422.494 3819.76C430.126 3836.59 433.928 3854.9 433.625 3873.38V4123.13C433.625 4156.24 420.466 4188.01 397.041 4211.43C373.617 4234.84 341.846 4248 308.719 4248C275.592 4248 243.821 4234.84 220.397 4211.43C196.972 4188.01 183.813 4156.24 183.813 4123.13V3873.38C182.391 3846.14 189.924 3819.2 205.261 3796.65ZM1204.51 3796.65C1219.85 3774.1 1242.15 3757.19 1268 3748.5H1270.5C1275.49 3748.2 1280.5 3748.2 1285.49 3748.5C1303.67 3745.17 1322.36 3745.92 1340.21 3750.68C1358.07 3755.45 1374.64 3764.12 1388.74 3776.07C1402.84 3788.01 1414.11 3802.94 1421.74 3819.76C1429.38 3836.59 1433.18 3854.9 1432.88 3873.38V4123.13C1432.88 4156.24 1419.72 4188.01 1396.29 4211.43C1372.87 4234.84 1341.1 4248 1307.97 4248C1274.84 4248 1243.07 4234.84 1219.65 4211.43C1196.22 4188.01 1183.06 4156.24 1183.06 4123.13V3873.38C1181.64 3846.14 1189.17 3819.2 1204.51 3796.65Z" fill="#445983"/>
<path d="M2299.71 4437.39L2403.29 3727.46H1851.77C1528.5 3727.46 1264 3425.74 1264 3056.95C1264 2688.23 1528.5 2386.51 1851.77 2386.51H1881.35C1942.5 2190.17 2055.38 2020.29 2204.49 1900.22C2353.59 1780.16 2531.58 1715.8 2714 1716C3168.03 1716 3547.17 2106.83 3595.65 2609.99H3674.17C3943.91 2609.99 4164 2861.43 4164 3168.69C4164 3476.03 3943.91 3727.46 3674.17 3727.46H2921.14L2817.57 4200.75H3128.29L2610.43 5029V4437.39H2299.71Z" fill="#FFE168"/>
<path d="M2403.29 3727.46L2299.71 4437.39H2610.43V5029L3128.29 4200.75H2817.57L2921.14 3727.46M2403.29 3727.46H1851.77M2403.29 3727.46H2921.14M2921.14 3727.46H3674.17M1851.77 3727.46C1528.5 3727.46 1264 3425.74 1264 3056.95C1264 2688.23 1528.5 2386.51 1851.77 2386.51H1881.35C1942.5 2190.17 2055.38 2020.29 2204.49 1900.22C2353.59 1780.16 2531.58 1715.8 2714 1716C3168.03 1716 3547.17 2106.83 3595.65 2609.99H3674.17C3943.91 2609.99 4164 2861.43 4164 3168.69C4164 3476.03 3943.91 3727.46 3674.17 3727.46M1851.77 3727.46H3674.17" stroke="#E4BF2B" stroke-width="150" stroke-linecap="round" stroke-linejoin="round"/>
<path d="M4696.97 2076.84L4707.7 2130.4L4761.84 2137.64C4927.73 2159.83 5078.72 2243.6 5184.32 2371.76C5289.91 2499.89 5342.27 2662.83 5330.99 2827.59C5319.71 2992.34 5245.6 3146.85 5123.45 3259.76C5001.28 3372.68 4840.19 3435.52 4672.78 3435.33H4672.73H4672.69H2343.83C2237.36 3435.16 2132.08 3413.48 2034.41 3371.63C1936.75 3329.79 1848.8 3268.66 1775.91 3192.05C1703.02 3115.43 1646.74 3024.94 1610.46 2926.12C1574.18 2827.31 1558.65 2722.22 1564.82 2617.29C1570.98 2512.36 1598.71 2409.76 1646.34 2315.75C1693.96 2221.75 1760.49 2138.3 1841.88 2070.55C1923.28 2002.8 2017.83 1952.18 2119.76 1921.82C2221.68 1891.47 2328.81 1882.03 2434.57 1894.09L2490.83 1900.51L2513.4 1848.58C2610.28 1625.68 2776.7 1439.18 2988.45 1316.46C3200.22 1193.72 3446.16 1141.26 3690.29 1166.81C3934.42 1192.36 4163.79 1294.57 4344.89 1458.36C4525.98 1622.14 4649.3 1838.88 4696.97 2076.84Z" fill="#AFAFAF" stroke="#454545" stroke-width="153"/>
<path d="M2930.68 1972.78L2941.58 2026.23L2995.67 2033.34C3145.21 2052.98 3280.98 2127.12 3375.75 2240.07C3470.46 2352.96 3517.24 2496.25 3507.15 2640.91C3497.07 2785.58 3430.8 2921.58 3321.1 3021.16C3211.35 3120.81 3066.35 3176.46 2915.42 3176.3H2915.38H2915.34H797.281C701.193 3176.15 606.199 3156.93 518.136 3119.86C430.076 3082.8 350.869 3028.71 285.3 2961.01C219.736 2893.32 169.186 2813.45 136.626 2726.35C104.069 2639.25 90.1524 2546.68 95.6814 2454.26C101.211 2361.85 126.076 2271.42 168.837 2188.52C211.601 2105.61 271.395 2031.9 344.67 1972C417.95 1912.09 503.154 1867.26 595.101 1840.36C687.051 1813.46 783.724 1805.09 879.171 1815.79L934.937 1822.04L957.645 1770.72C1044.98 1573.37 1195.12 1407.96 1386.51 1299.01C1577.93 1190.05 1800.38 1143.4 2021.28 1166.11C2242.17 1188.82 2449.52 1279.64 2613.07 1424.93C2776.59 1570.19 2887.74 1762.22 2930.68 1972.78Z" fill="#AFAFAF" stroke="#454545" stroke-width="153"/>
<path d="M3719.75 2697.43L3730.48 2750.98L3784.62 2758.22C3916.61 2775.87 4036.72 2842.51 4120.69 2944.4C4204.65 3046.27 4246.27 3175.78 4237.3 3306.7C4228.33 3437.62 4169.43 3560.44 4072.29 3650.22C3975.12 3740.01 3846.97 3790 3713.76 3789.85H3713.72H3713.67L1811.77 3789.85C1811.75 3789.85 1811.72 3789.85 1811.7 3789.85C1726.66 3789.71 1642.57 3772.39 1564.58 3738.97C1486.56 3705.55 1416.31 3656.74 1358.1 3595.56L1302.68 3648.3L1358.1 3595.56C1299.89 3534.39 1254.95 3462.14 1225.99 3383.27C1197.02 3304.4 1184.63 3220.52 1189.55 3136.78C1194.47 3053.03 1216.61 2971.13 1254.63 2896.09C1292.66 2821.05 1345.78 2754.42 1410.79 2700.32C1475.8 2646.22 1551.33 2605.79 1632.76 2581.54C1714.19 2557.3 1799.77 2549.76 1884.27 2559.4L1940.52 2565.81L1963.1 2513.89C2041.01 2334.66 2174.87 2184.67 2345.23 2085.95C2515.6 1987.23 2713.48 1945.02 2909.92 1965.58C3106.35 1986.13 3290.88 2068.35 3436.57 2200.09C3582.24 2331.81 3681.42 2506.1 3719.75 2697.43Z" fill="#AFAFAF" stroke="#454545" stroke-width="153"/>
</g>
<defs>
<clipPath id="clip0_5_11">
<rect width="5561" height="5561" fill="white"/>
</clipPath>
</defs>
</svg>
