<?xml version="1.0" encoding="utf-8"?>
<!-- Generator: Adobe Illustrator 24.0.1, SVG Export Plug-In . SVG Version: 6.00 Build 0)  -->
<svg version="1.1" id="Layer_1" xmlns="http://www.w3.org/2000/svg" xmlns:xlink="http://www.w3.org/1999/xlink" x="0px" y="0px"
	 viewBox="0 0 500 500" style="enable-background:new 0 0 500 500;" xml:space="preserve">
<style type="text/css">
	.st0{fill:#BFBFBF;}
	.st1{fill:#D4D6D6;}
	.st2{fill:#78D0EF;}
	.st3{fill:#29ABE2;}
</style>
<path class="st0" d="M482.99,257.9c0-44.65-36.13-80.85-80.74-80.99c4.75-11.61,7.37-24.32,7.37-37.64
	c0-54.99-44.58-99.57-99.57-99.57c-21.71,0-41.8,6.95-58.16,18.75C231.6,29.8,198.2,11.1,160.44,11.1
	C98.6,11.1,48.48,61.23,48.48,123.06c0,16.49,3.56,32.14,9.96,46.23c-24.43,16.74-40.46,44.84-40.46,76.69
	c0,49.87,39.3,90.56,88.62,92.8v0.1h297.3v-0.05C447.75,337.83,482.99,301.99,482.99,257.9z"/>
<path class="st1" d="M250.49,338.6V56.24c-20.4-27.55-53.13-45.43-90.04-45.43c-61.83,0-111.96,50.13-111.96,111.96
	c0,16.49,3.56,32.14,9.96,46.23c-24.43,16.74-40.46,44.84-40.46,76.69c0,49.87,39.3,90.56,88.62,92.8v0.1H250.49z"/>
<path class="st2" d="M150.38,460.52L150.38,460.52c-8.86-3.87-12.9-14.18-9.04-23.04l26.76-61.29c3.87-8.86,14.18-12.9,23.04-9.04
	l0,0c8.86,3.87,12.9,14.18,9.04,23.04l-26.76,61.29C169.56,460.34,159.24,464.39,150.38,460.52z"/>
<path class="st3" d="M209.38,487.52L209.38,487.52c-8.86-3.87-12.9-14.18-9.04-23.04l37.96-86.95c3.87-8.86,14.18-12.9,23.04-9.04h0
	c8.86,3.87,12.9,14.18,9.04,23.04l-37.96,86.95C228.56,487.34,218.24,491.39,209.38,487.52z"/>
<path class="st2" d="M285.38,459.52L285.38,459.52c-8.86-3.87-12.9-14.18-9.04-23.04l25.45-58.3c3.87-8.86,14.18-12.9,23.04-9.04h0
	c8.86,3.87,12.9,14.18,9.04,23.04l-25.45,58.3C304.56,459.34,294.24,463.39,285.38,459.52z"/>
</svg>
