<?xml version="1.0" encoding="utf-8"?>
<!-- Generator: Adobe Illustrator 24.0.1, SVG Export Plug-In . SVG Version: 6.00 Build 0)  -->
<svg version="1.1" id="Layer_1" xmlns="http://www.w3.org/2000/svg" xmlns:xlink="http://www.w3.org/1999/xlink" x="0px" y="0px"
	 viewBox="0 0 500 500" style="enable-background:new 0 0 500 500;" xml:space="preserve">
<style type="text/css">
	.st0{fill:#FEBE20;}
	.st1{fill:#FCD017;}
</style>
<g>
	<path class="st0" d="M256.8,84.2h-13.34c-0.43,0-0.77-0.35-0.77-0.77V19.05c0-0.43,0.35-0.77,0.77-0.77h13.34
		c0.43,0,0.77,0.35,0.77,0.77v64.38C257.58,83.86,257.23,84.2,256.8,84.2z"/>
	<path class="st0" d="M316.75,98.01l-12.28-5.22c-0.39-0.17-0.58-0.62-0.41-1.01l25.17-59.25c0.17-0.39,0.62-0.58,1.01-0.41
		l12.28,5.22c0.39,0.17,0.58,0.62,0.41,1.01L317.77,97.6C317.6,97.99,317.14,98.18,316.75,98.01z"/>
	<path class="st0" d="M367.15,131.76l-9.77-9.08c-0.31-0.29-0.33-0.78-0.04-1.09l43.84-47.15c0.29-0.31,0.78-0.33,1.09-0.04
		l9.77,9.08c0.31,0.29,0.33,0.78,0.04,1.09l-43.84,47.15C367.95,132.03,367.46,132.05,367.15,131.76z"/>
	<path class="st0" d="M405.02,187.62l-5.98-11.92c-0.19-0.38-0.04-0.85,0.34-1.04l57.55-28.86c0.38-0.19,0.85-0.04,1.04,0.34
		l5.98,11.92c0.19,0.38,0.04,0.85-0.34,1.04l-57.55,28.86C405.67,188.15,405.21,188,405.02,187.62z"/>
	<path class="st0" d="M417.07,256.75v-13.34c0-0.43,0.35-0.77,0.77-0.77h64.38c0.43,0,0.77,0.35,0.77,0.77v13.34
		c0,0.43-0.35,0.77-0.77,0.77h-64.38C417.42,257.53,417.07,257.18,417.07,256.75z"/>
	<path class="st0" d="M403.52,319.55l5.34-12.22c0.17-0.39,0.63-0.57,1.02-0.4l58.99,25.77c0.39,0.17,0.57,0.63,0.4,1.02
		l-5.34,12.22c-0.17,0.39-0.63,0.57-1.02,0.4l-58.99-25.77C403.53,320.39,403.35,319.94,403.52,319.55z"/>
	<path class="st0" d="M369.26,369.59l9.18-9.68c0.29-0.31,0.78-0.32,1.09-0.03l46.7,44.32c0.31,0.29,0.32,0.78,0.03,1.09l-9.18,9.68
		c-0.29,0.31-0.78,0.32-1.09,0.03l-46.7-44.32C368.98,370.39,368.96,369.9,369.26,369.59z"/>
	<path class="st0" d="M313.02,406.9l11.98-5.86c0.38-0.19,0.85-0.03,1.04,0.36l28.27,57.84c0.19,0.38,0.03,0.85-0.36,1.04
		l-11.98,5.86c-0.38,0.19-0.85,0.03-1.04-0.36l-28.27-57.84C312.48,407.55,312.64,407.08,313.02,406.9z"/>
	<path class="st0" d="M243.77,418.25l13.34,0.14c0.43,0,0.77,0.35,0.77,0.78l-0.65,64.38c0,0.43-0.35,0.77-0.78,0.77l-13.34-0.14
		c-0.43,0-0.77-0.35-0.77-0.78l0.65-64.38C242.99,418.59,243.34,418.25,243.77,418.25z"/>
	<path class="st0" d="M185.2,402.09l12.31,5.14c0.39,0.16,0.58,0.62,0.42,1.01l-24.82,59.4c-0.16,0.39-0.62,0.58-1.01,0.42
		l-12.31-5.14c-0.39-0.16-0.58-0.62-0.42-1.01l24.82-59.4C184.35,402.11,184.8,401.92,185.2,402.09z"/>
	<path class="st0" d="M134.6,368.64l9.82,9.02c0.31,0.29,0.34,0.78,0.05,1.09l-43.56,47.41c-0.29,0.31-0.78,0.34-1.09,0.05
		L90,417.19c-0.31-0.29-0.34-0.78-0.05-1.09l43.56-47.41C133.8,368.37,134.29,368.35,134.6,368.64z"/>
	<path class="st0" d="M96.4,313.01l6.05,11.89c0.19,0.38,0.04,0.85-0.34,1.04l-57.37,29.2c-0.38,0.19-0.85,0.04-1.04-0.34
		l-6.05-11.89c-0.19-0.38-0.04-0.85,0.34-1.04l57.37-29.2C95.74,312.48,96.2,312.63,96.4,313.01z"/>
	<path class="st0" d="M83.92,243.95L84,257.29c0,0.43-0.34,0.78-0.77,0.78l-64.38,0.39c-0.43,0-0.78-0.34-0.78-0.77L18,244.34
		c0-0.43,0.34-0.78,0.77-0.78l64.38-0.39C83.57,243.18,83.92,243.52,83.92,243.95z"/>
	<path class="st0" d="M97.49,185.57l-5.17,12.3c-0.17,0.39-0.62,0.58-1.01,0.41l-59.35-24.94c-0.39-0.17-0.58-0.62-0.41-1.01
		l5.17-12.3c0.17-0.39,0.62-0.58,1.01-0.41l59.35,24.94C97.47,184.72,97.65,185.18,97.49,185.57z"/>
	<path class="st0" d="M131.04,135.05l-9.05,9.8c-0.29,0.31-0.78,0.33-1.09,0.04l-47.32-43.66c-0.31-0.29-0.33-0.78-0.04-1.09
		l9.05-9.8c0.29-0.31,0.78-0.33,1.09-0.04L131,133.95C131.31,134.24,131.33,134.73,131.04,135.05z"/>
	<path class="st0" d="M186.75,96.96l-11.9,6.03c-0.38,0.19-0.85,0.04-1.04-0.34l-29.08-57.44c-0.19-0.38-0.04-0.85,0.34-1.04
		l11.9-6.03c0.38-0.19,0.85-0.04,1.04,0.34l29.08,57.44C187.29,96.3,187.13,96.77,186.75,96.96z"/>
	<circle class="st1" cx="253.1" cy="250.4" r="136.11"/>
	<path class="st0" d="M307.23,358.29c-75.17,0-136.11-60.94-136.11-136.11c0-41.88,18.92-79.33,48.67-104.3
		c-59.49,14.56-103.64,68.22-103.64,132.2c0,75.17,60.94,136.11,136.11,136.11c33.29,0,63.78-11.96,87.43-31.8
		C329.29,356.93,318.42,358.29,307.23,358.29z"/>
</g>
</svg>
