<?xml version="1.0" encoding="utf-8"?>
<!-- Generator: Adobe Illustrator 24.0.1, SVG Export Plug-In . SVG Version: 6.00 Build 0)  -->
<svg version="1.1" id="Layer_1" xmlns="http://www.w3.org/2000/svg" xmlns:xlink="http://www.w3.org/1999/xlink" x="0px" y="0px"
	 viewBox="0 0 500 500" style="enable-background:new 0 0 500 500;" xml:space="preserve">
<style type="text/css">
	.st0{fill:#02B8F0;}
	.st1{fill:#02C8F5;}
	.st2{fill:#29ABE2;}
</style>
<path class="st0" d="M483,258.55c0-44.65-36.13-80.85-80.74-80.99c4.75-11.61,7.37-24.32,7.37-37.64
	c0-54.99-44.58-99.57-99.57-99.57c-21.71,0-41.8,6.95-58.16,18.75c-20.28-28.64-53.67-47.34-91.44-47.34
	c-61.83,0-111.96,50.13-111.96,111.96c0,16.49,3.57,32.14,9.96,46.23C34.03,186.69,18,214.79,18,246.64
	c0,49.87,39.3,90.56,88.62,92.8v0.1h297.3v-0.05C447.76,338.48,483,302.65,483,258.55z"/>
<path class="st1" d="M250.5,339.26V56.9c-20.4-27.55-53.13-45.43-90.04-45.43C98.62,11.47,48.5,61.6,48.5,123.43
	c0,16.49,3.57,32.14,9.96,46.23c-24.43,16.74-40.46,44.84-40.46,76.69c0,49.87,39.3,90.56,88.62,92.8v0.1H250.5z"/>
<path class="st2" d="M94.89,485.82L94.89,485.82c-8.86-3.87-12.9-14.18-9.04-23.04l37.22-85.25c3.87-8.86,14.18-12.9,23.04-9.04l0,0
	c8.86,3.87,12.9,14.18,9.04,23.04l-37.22,85.25C114.06,485.64,103.75,489.69,94.89,485.82z"/>
<path class="st2" d="M170.4,460.18L170.4,460.18c-8.86-3.87-12.9-14.18-9.04-23.04l26.76-61.29c3.87-8.86,14.18-12.9,23.04-9.04h0
	c8.86,3.87,12.9,14.18,9.04,23.04l-26.76,61.29C189.57,460,179.26,464.05,170.4,460.18z"/>
<path class="st2" d="M229.4,487.18L229.4,487.18c-8.86-3.87-12.9-14.18-9.04-23.04l37.96-86.95c3.87-8.86,14.18-12.9,23.04-9.04l0,0
	c8.86,3.87,12.9,14.18,9.04,23.04l-37.96,86.95C248.57,487,238.26,491.05,229.4,487.18z"/>
<path class="st2" d="M305.4,459.18L305.4,459.18c-8.86-3.87-12.9-14.18-9.04-23.04l25.45-58.3c3.87-8.86,14.18-12.9,23.04-9.04l0,0
	c8.86,3.87,12.9,14.18,9.04,23.04l-25.45,58.3C324.57,459,314.26,463.05,305.4,459.18z"/>
</svg>
